# xmcd
#
# Track frame offsets:
#	150
#	12852
#	29542
#	44969
#	60302
#	76854
#	96693
#	115054
#	131986
#	148988
#	161867
#	177696
#	196922
#	215557
#	234062
#	251183
#
# Disc length: 3531 seconds
#
# Revision: 1
# Processed by: cddbd v1.5.2PL0 Copyright (c) Steve Scherf et al.
# Submitted via: audiograbber 1.83.01
#
DISCID=f40dc910
DTITLE=Various Artist - CDX 562
DYEAR=2012
DGENRE=Country
TTITLE0=Easton Corbin - All Over The Road
TTITLE1=Kip Moore  - Hey Pretty Girl
TTITLE2=Joel Crouse - If You Want Some
TTITLE3=Eric Church - Like Jesus Does
TTITLE4=Blake Shelton - Sure Be Cool If You  Did
TTITLE5=Tim McGraw with Colt Ford - Twisted
TTITLE6=Darius Rucker  - Wagon Wheel
TTITLE7=Billy Ray Cyrus - Hillbilly Heart (Radio Edit)
TTITLE8=Billy Ray Cyrus - Hillbilly Heart (Album Version)
TTITLE9=Shawn Campbell - Can't Be Wrong
TTITLE10=Tobi Gordon - I Want To Live Like That
TTITLE11=Shane Yellowbird - Pickup Truck
TTITLE12=John Karl - That's What I Believe
TTITLE13=Chris Cox - The Secret Of Life
TTITLE14=Clinton Gregory - Too Much Ain't Enough
TTITLE15=Wesley Dennis - You
EXTD=
EXTT0=
EXTT1=
EXTT2=
EXTT3=
EXTT4=
EXTT5=
EXTT6=
EXTT7=
EXTT8=
EXTT9=
EXTT10=
EXTT11=
EXTT12=
EXTT13=
EXTT14=
EXTT15=
PLAYORDER=
